<svg
        xmlns="http://www.w3.org/2000/svg"
        height="24px"
        viewBox="0 -960 960 960"
        width="24px"
        fill="#5f6368"
        id="up"
      >
        <path
          d="M280-160v-80h400v80H280Zm160-160v-327L336-544l-56-56 200-200 200 200-56 56-104-103v327h-80Z"
        />
      </svg>
      <svg
        xmlns="http://www.w3.org/2000/svg"
        height="24px"
        viewBox="0 -960 960 960" <!-- Same viewBox as the others -->
        width="24px"
        fill="#5f6368"
        version="1.1"
        id="start-up"
      >
        <path
          d="m 80,-240 v -479.06524 h 80.09348 V -240 Z m 560.65433,0 -57.0666,-55.89094 144.16826,-143.71958 H 240.18695 v -79.8442 h 487.56904 l -143.16709,-143.71957 56.06543,-55.89095 240.28043,239.53262 z"
        />
        <path
          d="m 280,-160 v -80 h 400 v 80 z m 160,-160 v -327 l -104,103 -56,-56 200,-200 200,200 -56,56 -104,-103 v 327 z"
        />
      </svg>